<?xml version="1.0" encoding="UTF-8"?>
<svg width="64px" height="64px" viewBox="0 0 64 64" version="1.1" xmlns="http://www.w3.org/2000/svg" xmlns:xlink="http://www.w3.org/1999/xlink">
    <title>堆积面积图</title>
    <g id="输出" stroke="none" stroke-width="1" fill="none" fill-rule="evenodd">
        <g id="电网评价-评价对比(饼、环)" transform="translate(-152.000000, -703.000000)">
            <g id="编组-7" transform="translate(112.000000, 679.000000)">
                <g id="堆积面积图" transform="translate(40.000000, 24.000000)">
                    <rect id="矩形" x="0" y="0" width="64" height="64"></rect>
                    <path d="M6.31224194,6 C6.39348287,6 6.4747238,6.03147319 6.53721683,6.09441956 C6.59970985,6.15736594 6.63095637,6.23919622 6.63095637,6.32102651 L6.63095637,55.3499576 L59.6812856,55.3499576 C59.7625265,55.3499576 59.8437674,55.3814308 59.9062605,55.4443772 C59.9687535,55.5073236 60,55.5891539 60,55.6709841 L60,57.6789735 C60,57.7608038 59.9687535,57.8426341 59.9062605,57.9055804 C59.8437674,57.9685268 59.7625265,58 59.6812856,58 L4,58 L4,6.32102651 C4,6.23919622 4.03124651,6.15736594 4.09373954,6.09441956 C4.15623256,6.03147319 4.2374735,6 4.31871443,6 L6.31224194,6 Z M59.9562549,31.6065852 L59.9562549,51.8249607 L10.1118179,51.8249607 L10.1118179,44.8127345 C10.1118179,44.7186522 12.2981671,42.7164757 14.5626001,40.6680236 L15.0662359,40.212807 C17.330669,38.167715 19.5170182,36.2142598 19.5170182,36.2142598 C19.7419931,35.9876528 20.1294498,35.9561796 20.4169178,36.1198402 L20.4169178,36.1198402 L31.659413,42.1878707 C31.9156344,42.3200581 32.2405981,42.3200581 32.465573,42.1563975 L32.465573,42.1563975 L41.3895771,36.4093935 L41.5895547,36.314974 L59.9562549,31.6065852 Z M59.9812521,16.2413751 L59.9812521,28.4466772 L41.5833054,33.0228786 C41.5208124,33.0228786 41.4208236,33.085825 41.3583305,33.1172981 L41.3583305,33.1172981 L32.3343377,38.8643021 C32.1093628,39.0279627 31.7843991,39.0279627 31.5281777,38.8957753 L31.5281777,38.8957753 L20.4106685,32.8277448 C20.1232005,32.6640843 19.7357438,32.6955574 19.5107689,32.9221644 L19.5107689,32.9221644 L10.1368151,41.3255054 L10.1368151,31.6884154 L19.5482647,23.1151192 C19.7732396,22.8885123 20.1606964,22.8570391 20.4481643,23.0206997 L20.4481643,23.0206997 L30.1158353,28.345963 C30.3720567,28.5096235 30.7282669,28.4781503 30.9844883,28.2830166 L30.9844883,28.2830166 L39.8459993,21.2707905 C39.9397389,21.2078441 40.0397277,21.1386031 40.1334672,21.1071299 L40.1334672,21.1071299 L59.9812521,16.2413751 Z" id="形状结合" fill="#00706A" fill-rule="nonzero"></path>
                </g>
            </g>
        </g>
    </g>
</svg>