<?xml version="1.0" encoding="UTF-8"?>
<svg width="64px" height="64px" viewBox="0 0 64 64" version="1.1" xmlns="http://www.w3.org/2000/svg" xmlns:xlink="http://www.w3.org/1999/xlink">
    <title>环形图</title>
    <g id="输出" stroke="none" stroke-width="1" fill="none" fill-rule="evenodd">
        <g id="电网评价-评价对比(饼、环)" transform="translate(-152.000000, -863.000000)">
            <g id="编组-9" transform="translate(112.000000, 839.000000)">
                <g id="环形图" transform="translate(40.000000, 24.000000)">
                    <rect id="矩形" x="0" y="0" width="64" height="64"></rect>
                    <path d="M30.6794258,4 L30.6794258,19.233444 L29.8045113,19.3865989 C27.0266576,19.867943 24.4456596,21.2846259 22.5372522,23.3795663 C20.3882433,25.737058 19.2071087,28.7946865 19.2071087,31.9890604 C19.2071087,35.4076968 20.5358852,38.6184802 22.9528366,41.0361399 C25.3697881,43.4537996 28.5796309,44.7829654 31.9972659,44.7829654 C33.4572796,44.7829654 34.8844839,44.5422934 36.2515379,44.0554796 L36.2515379,44.0554796 L37.0827068,43.7601094 L44.5413534,57.0517679 L43.4969241,57.5276421 C39.8714969,59.1685876 36.0054682,60 31.9972659,60 C16.5604921,60 4,47.4358273 4,31.9945302 C4,24.9384645 6.61380725,18.2051182 11.3656869,13.0361399 C16.0956938,7.87810119 22.5536569,4.70560656 29.5365687,4.09845673 L29.5365687,4.09845673 L30.6794258,4 Z M56.6862611,18.7411604 L57.189337,19.774956 C59.0266576,23.5546005 59.9945318,27.7827701 60,31.9945302 C60,36.5618285 58.8790157,41.0908381 56.7682843,45.0892752 C54.657553,49.0767728 51.5570745,52.5446376 47.7894737,55.1154522 L47.7894737,55.1154522 L46.8380041,55.7663606 L39.3793575,42.4692323 L40.0683527,41.9003712 C41.3861928,40.822817 42.5017088,39.466302 43.2946001,37.9785114 C44.2734108,36.1461223 44.7874231,34.078531 44.7874231,31.9890604 C44.7874231,30.4137527 44.4976077,28.8712639 43.9289132,27.3998828 L43.9289132,27.3998828 L43.6062884,26.5739402 L56.6862611,18.7411604 Z M33.3151059,4 L34.4579631,4.09845673 C38.4005468,4.4485251 42.3157895,5.67376441 45.7826384,7.63742919 C49.2494874,9.60109396 52.3171565,12.3360031 54.6520848,15.5467865 L54.6520848,15.5467865 L55.3301435,16.4766556 L42.2556391,24.3094354 L41.6760082,23.6421176 C39.745728,21.4049619 37.0827068,19.895292 34.1900205,19.3920688 L34.1900205,19.3920688 L33.3151059,19.2389139 L33.3151059,4 Z" id="形状结合" fill="#00706A" fill-rule="nonzero"></path>
                </g>
            </g>
        </g>
    </g>
</svg>