<?xml version="1.0" encoding="UTF-8"?>
<svg width="64px" height="64px" viewBox="0 0 64 64" version="1.1" xmlns="http://www.w3.org/2000/svg" xmlns:xlink="http://www.w3.org/1999/xlink">
    <title>饼图</title>
    <g id="输出" stroke="none" stroke-width="1" fill="none" fill-rule="evenodd">
        <g id="电网评价-评价对比(饼、环)" transform="translate(-152.000000, -543.000000)">
            <g id="编组-6" transform="translate(112.000000, 519.000000)">
                <g id="饼图" transform="translate(40.000000, 24.000000)">
                    <rect id="矩形" x="0" y="0" width="64" height="64"></rect>
                    <path d="M31.5278101,34.65 L30.2145683,34.1875 L29.8375611,33.8125 L21.8827089,25.89375 L11.2322551,15.29375 C6.75215266,20.04375 4.00628345,26.425 4,33.45625 C4.02513381,48.11875 15.9448452,59.96875 30.6795439,60 C41.9646265,60 51.6034443,53.025 55.5054689,43.18125 L47.7139865,40.4125 L31.5278101,34.65 Z M28.7882243,28.5 L25.112404,24.84375 L11.370491,11.18125 C15.9511287,6.9 22.0523621,4.2125 28.7882243,4 L28.7882243,28.5 Z M32.1624389,5.05 C46.5075634,5.51875 57.9685827,17.2 58,31.575 C58,34.41875 57.5475913,37.15 56.7181755,39.71875 L32.1624389,30.98125 L32.1624389,5.05 Z" id="形状" fill="#00706A" fill-rule="nonzero"></path>
                </g>
            </g>
        </g>
    </g>
</svg>