<?xml version="1.0" encoding="UTF-8"?>
<svg width="16px" height="16px" viewBox="0 0 16 16" version="1.1" xmlns="http://www.w3.org/2000/svg" xmlns:xlink="http://www.w3.org/1999/xlink">
    <g id="输出" stroke="none" stroke-width="1" fill="none" fill-rule="evenodd" fill-opacity="0.65">
        <g id="专业数据-指标选择-选中" transform="translate(-115.000000, -373.000000)" fill="#FFFFFF" fill-rule="nonzero">
            <g id="编组-2" transform="translate(80.000000, 310.077446)">
                <g id="注意" transform="translate(35.000000, 62.922554)">
                    <path d="M7.99531244,16 C6.97029891,16 5.97028571,15.8078112 5.02339821,15.4281212 C4.06401055,15.0437437 3.1968116,14.4828025 2.44836423,13.7609227 C1.70147937,13.0406055 1.10928405,12.1968499 0.688966004,11.2515312 C0.25302275,10.2733997 0.0217696974,9.22964282 0.00145692932,8.14994819 C-0.0188558388,7.07025357 0.173334198,6.01868413 0.571776957,5.02492757 C0.95615703,4.06554624 1.51710193,3.19835302 2.23898646,2.44991058 C2.95930847,1.70146814 3.80306961,1.10927673 4.74839458,0.688961457 C5.72653249,0.25302108 6.77029627,0.0217695538 7.84999802,0.0014569197 C8.92969977,-0.0188557143 9.98127615,0.173333054 10.9750393,0.571773183 C11.9344269,0.95615072 12.8016259,1.51709192 13.5500733,2.23897169 C14.2985206,2.95928894 14.8907159,3.80460702 15.311034,4.74992576 C15.7469773,5.72805721 15.9782303,6.7718141 15.9985431,7.85150873 C16.0188558,8.93120335 15.8266658,9.98277279 15.428223,10.9765293 C15.043843,11.9359107 14.4828981,12.8031039 13.7610135,13.5515463 C13.0406915,14.2999888 12.1953679,14.8921802 11.2500429,15.3124955 C10.271905,15.7484358 9.22814121,15.9796874 8.14843946,16 L7.99531244,16 Z M8.00468756,0.85771257 C7.95937446,0.85771257 7.91249885,0.85771257 7.86718575,0.859275081 C6.90311052,0.878025204 5.97184823,1.08427657 5.0983992,1.47177912 C4.25463807,1.8467816 3.50150313,2.37647259 2.85774463,3.04522701 C2.21398613,3.71398142 1.71397953,4.48742402 1.370225,5.34367968 C1.01240777,6.23118553 0.842093025,7.16869172 0.859280752,8.13432309 C0.878030999,9.09839195 1.08428372,10.0296481 1.47178884,10.9030914 C1.84679379,11.7468469 2.37648828,12.4999769 3.0452471,13.1437312 C3.71400593,13.7874854 4.48745364,14.2874887 5.34371494,14.631241 C6.23122665,14.9874933 7.16873903,15.1578069 8.13281425,15.1406193 C9.09688948,15.1218692 10.0281518,14.9156178 10.9016008,14.5281153 C11.7453619,14.1531128 12.4984969,13.6234218 13.1422554,12.9546674 C13.7860139,12.285913 14.2860205,11.5124704 14.629775,10.6562147 C14.9860297,9.76870888 15.1563445,8.83120269 15.1391567,7.86713383 C15.1204065,6.90306497 14.9141538,5.97180882 14.5266486,5.09836556 C14.1516437,4.25460999 13.6219492,3.50148002 12.9531904,2.85772577 C12.2844315,2.21397152 11.5109838,1.71396822 10.6547225,1.37021595 C9.8109614,1.0295887 8.92032465,0.85771257 8.00468756,0.85771257 Z" id="形状"></path>
                    <path d="M8,12.3952887 C7.91406137,12.3952887 7.83906038,12.3827886 7.76562191,12.3577885 C7.69218344,12.3202882 7.61718245,12.2718504 7.56874431,12.2234126 C7.50624348,12.1609122 7.45780534,12.0999743 7.43280501,12.0265363 C7.39530452,11.9515358 7.38280435,11.8671602 7.38280435,11.7796596 C7.38280435,11.6202836 7.44374266,11.459345 7.56718179,11.3484068 C7.78905972,11.1155928 8.19375256,11.1155928 8.42813065,11.3484068 C8.55156978,11.4609075 8.61250808,11.6202836 8.61250808,11.7796596 C8.61250808,11.8655977 8.60000792,11.9515358 8.56250742,12.0265363 C8.53750709,12.0999743 8.48906896,12.1609122 8.42656813,12.2234126 C8.32031673,12.3343508 8.16093962,12.3952887 8,12.3952887 L8,12.3952887 Z M8,9.69058336 C7.76249687,9.69058336 7.57030683,9.49839459 7.57030683,9.26089303 L7.57030683,4.21398472 C7.57030683,3.97648315 7.76249687,3.78429438 8,3.78429438 C8.23750313,3.78429438 8.42969317,3.97648315 8.42969317,4.21398472 L8.42969317,9.26089303 C8.42969317,9.49839459 8.23750313,9.69058336 8,9.69058336 Z" id="形状"></path>
                </g>
            </g>
        </g>
    </g>
</svg>
