<?xml version="1.0" encoding="UTF-8"?>
<svg width="32px" height="32px" viewBox="0 0 32 32" version="1.1" xmlns="http://www.w3.org/2000/svg" xmlns:xlink="http://www.w3.org/1999/xlink">
    <title>折-亮</title>
    <g id="输出" stroke="none" stroke-width="1" fill="none" fill-rule="evenodd">
        <g id="汇总评价-柱/折/列(单值)" transform="translate(-1808.000000, -155.000000)" fill="#00706A">
            <g id="折-亮" transform="translate(1808.000000, 155.000000)">
                <path d="M30.4,0 C31.2836556,-1.623249e-16 32,0.7163444 32,1.6 L32,30.4 C32,31.2836556 31.2836556,32 30.4,32 L1.6,32 C0.7163444,32 -3.3587261e-16,31.2836556 0,30.4 L0,1.6 C-1.082166e-16,0.7163444 0.7163444,-2.8176431e-16 1.6,0 L30.4,0 Z M27.84,26.88 L4.16,26.88 C3.52,26.88 3.2,27.2 3.2,27.84 L3.2,27.84 L3.20489796,27.9722449 C3.24734694,28.5240816 3.56571429,28.8 4.16,28.8 L4.16,28.8 L27.84,28.8 C28.48,28.8 28.8,28.48 28.8,27.84 L28.8,27.84 L28.795102,27.7077551 C28.7526531,27.1559184 28.4342857,26.88 27.84,26.88 L27.84,26.88 Z M26.3778862,8.28800442 L18.3804878,16.4710581 L13.3506775,11.3566496 C13.099187,11.2032173 12.8476965,11.1009291 12.596206,11.1009291 C12.3447154,11.1009291 12.0932249,11.2032173 11.8920325,11.4077936 L5.10178862,18.2611011 C4.69940379,18.6702538 4.69940379,19.2839828 5.10178862,19.6931355 C5.50417344,20.1022882 6.10775068,20.1022882 6.5101355,19.6931355 L12.596206,13.5047011 L17.5757182,18.5679656 C17.7769106,18.7725419 18.0786992,18.8748301 18.3301897,18.8748301 C18.5816802,18.8748301 18.8331707,18.7725419 19.0343631,18.5679656 L27.735935,9.66889473 C28.0880217,9.25974205 28.0880217,8.64601302 27.735935,8.28800442 C27.3838482,7.92999583 26.7299729,7.87885174 26.3778862,8.28800442 Z" id="形状结合"></path>
            </g>
        </g>
    </g>
</svg>