<?xml version="1.0" encoding="UTF-8"?>
<svg width="32px" height="32px" viewBox="0 0 32 32" version="1.1" xmlns="http://www.w3.org/2000/svg" xmlns:xlink="http://www.w3.org/1999/xlink">
    <title>柱-暗</title>
    <g id="输出" stroke="none" stroke-width="1" fill="none" fill-rule="evenodd" fill-opacity="0.25">
        <g id="汇总评价-柱/折/列(单值)" transform="translate(-1768.000000, -155.000000)" fill="#000000">
            <g id="柱-暗" transform="translate(1768.000000, 155.000000)">
                <path d="M30.4,0 C31.2836556,-1.623249e-16 32,0.7163444 32,1.6 L32,30.4 C32,31.2836556 31.2836556,32 30.4,32 L1.6,32 C0.7163444,32 -3.3587261e-16,31.2836556 0,30.4 L0,1.6 C-1.082166e-16,0.7163444 0.7163444,-2.8176431e-16 1.6,0 L30.4,0 Z M29.6,1.6 L2.4,1.6 C1.9581722,1.6 1.6,1.9581722 1.6,2.4 L1.6,2.4 L1.6,29.6 C1.6,30.0418278 1.9581722,30.4 2.4,30.4 L2.4,30.4 L29.6,30.4 C30.0418278,30.4 30.4,30.0418278 30.4,29.6 L30.4,29.6 L30.4,2.4 C30.4,1.9581722 30.0418278,1.6 29.6,1.6 L29.6,1.6 Z" id="形状结合"></path>
                <path d="M27.84,26.88 C28.4342857,26.88 28.7526531,27.1559184 28.795102,27.7077551 L28.8,27.84 C28.8,28.48 28.48,28.8 27.84,28.8 L4.16,28.8 C3.56571429,28.8 3.24734694,28.5240816 3.20489796,27.9722449 L3.2,27.84 C3.2,27.2 3.52,26.88 4.16,26.88 L27.84,26.88 Z M26.24,3.2 C26.9469245,3.2 27.52,3.77307552 27.52,4.48000001 L27.52,23.68 C27.52,24.3869245 26.9469245,24.96 26.24,24.96 L22.4,24.96 C21.6930755,24.96 21.12,24.3869245 21.12,23.68 L21.12,4.48000001 C21.12,3.77307554 21.6930755,3.2 22.4,3.2 L26.24,3.2 Z M17.92,9.60000001 C18.6269245,9.60000001 19.2,10.1730755 19.2,10.88 L19.2,23.68 C19.2,24.3869245 18.6269245,24.96 17.92,24.96 L14.08,24.96 C13.7405229,24.96 13.4149499,24.8251432 13.1749033,24.5850967 C12.9348567,24.3450501 12.8,24.0194771 12.8,23.68 L12.8,10.88 C12.8,10.1730755 13.3730755,9.60000001 14.08,9.60000001 L17.92,9.60000001 Z M9.60000001,5.76000002 C10.3069245,5.76000002 10.88,6.33307554 10.88,7.04 L10.88,23.68 C10.88,24.3869245 10.3069245,24.96 9.60000001,24.96 L5.76000002,24.96 C5.05307553,24.96 4.48000001,24.3869245 4.48000001,23.68 L4.48000001,7.04 C4.48000001,6.33307552 5.05307554,5.76000002 5.76000002,5.76000002 L9.60000001,5.76000002 Z M25.6,5.12 L23.04,5.12 L23.04,23.04 L25.6,23.04 L25.6,5.12 Z M17.28,11.52 L14.72,11.52 L14.72,23.04 L17.28,23.04 L17.28,11.52 Z M8.96,7.68000002 L6.40000001,7.68000002 L6.40000001,23.04 L8.96,23.04 L8.96,7.68000002 Z" id="形状结合" fill-rule="nonzero"></path>
            </g>
        </g>
    </g>
</svg>